<?xml version="1.0" encoding="UTF-8" standalone="no"?>
<!-- Created with Inkscape (http://www.inkscape.org/) -->

<svg
   width="720"
   height="720"
   viewBox="0 0 190.5 190.5"
   version="1.1"
   id="svg5"
   inkscape:version="1.2.2 (732a01da63, 2022-12-09)"
   sodipodi:docname="inkscaperaw.svg"
   xmlns:inkscape="http://www.inkscape.org/namespaces/inkscape"
   xmlns:sodipodi="http://sodipodi.sourceforge.net/DTD/sodipodi-0.dtd"
   xmlns="http://www.w3.org/2000/svg"
   xmlns:svg="http://www.w3.org/2000/svg">
  <sodipodi:namedview
     id="namedview7"
     pagecolor="#ffffff"
     bordercolor="#000000"
     borderopacity="0.25"
     inkscape:showpageshadow="2"
     inkscape:pageopacity="0.0"
     inkscape:pagecheckerboard="0"
     inkscape:deskcolor="#d1d1d1"
     inkscape:document-units="mm"
     showgrid="false"
     inkscape:zoom="1.2938725"
     inkscape:cx="395.71133"
     inkscape:cy="324.99339"
     inkscape:window-width="1278"
     inkscape:window-height="1334"
     inkscape:window-x="-10"
     inkscape:window-y="0"
     inkscape:window-maximized="0"
     inkscape:current-layer="layer1" />
  <defs
     id="defs2">
    <inkscape:perspective
       sodipodi:type="inkscape:persp3d"
       inkscape:vp_x="88.339466 : 140.85116 : 1"
       inkscape:vp_y="0 : 1000 : 0"
       inkscape:vp_z="161.87148 : 138.1928 : 1"
       inkscape:persp3d-origin="95.25 : 63.5 : 1"
       id="perspective661" />
    <rect
       x="26.277706"
       y="268.18717"
       width="286.73614"
       height="51.782537"
       id="rect290" />
  </defs>
  <g
     inkscape:label="Layer 1"
     inkscape:groupmode="layer"
     id="layer1">
    <text
       xml:space="preserve"
       transform="scale(0.26458333)"
       id="text288"
       style="fill:#000000;white-space:pre;shape-inside:url(#rect290)" />
    <ellipse
       style="fill:#000000;stroke-width:0.264583"
       id="path779"
       cx="97.336998"
       cy="47.952785"
       rx="39.057495"
       ry="15.643446" />
    <path
       style="fill:#000000;stroke-width:0.264583"
       d="m 59.301953,47.237073 c -0.204488,0.477141 -0.361362,0.977638 -0.613468,1.431427 -0.398613,0.717503 -1.168712,1.165556 -1.635916,1.840405 -0.260273,0.375949 -0.383072,0.831971 -0.613468,1.226936 -0.737989,1.265124 -1.513718,2.504239 -2.044896,3.885301 -0.178139,0.463161 -0.234738,0.966787 -0.40898,1.431427 -0.235717,0.628587 -0.655134,1.18912 -0.817956,1.840405 -0.182602,0.730408 -0.125675,1.500634 -0.204489,2.249384 -0.187809,1.784189 -0.303956,3.531314 -0.408979,5.316728 -0.07791,1.324404 -0.667946,3.072871 0.204488,4.29428 0.403349,0.564687 3.754543,1.382271 4.29428,1.022448 0.283575,-0.189053 0.491122,-0.499862 0.613468,-0.817959 0.225595,-0.586545 0.218435,-1.241555 0.40898,-1.840405 0.575725,-1.809422 1.401731,-3.530166 2.044896,-5.316728 1.532959,-4.25822 0.159808,-1.063842 2.249384,-6.952641 0.648086,-1.826427 1.49851,-3.583811 1.840405,-5.521217 0.119049,-0.674608 0.08195,-1.370915 0.204488,-2.044896 0.0907,-0.498848 0.40898,0.08739 0.40898,-0.408979"
       id="path783" />
    <path
       style="fill:#000000;stroke-width:0.264583"
       d="m 56.030121,68.095002 c -0.408979,0.40898 -0.869598,0.772144 -1.226936,1.226936 -1.019591,1.29766 -1.562733,2.82288 -2.249384,4.29428 -1.32183,2.832492 -3.112731,5.953615 -2.862853,9.202029 0.06462,0.840134 2.506387,1.476248 3.067341,1.226936 0.73673,-0.327435 1.856364,-1.758111 2.249384,-2.249384 1.849472,-2.311839 0.803228,-0.777444 1.635916,-3.067344 0.156263,-0.429723 0.523796,-0.778563 0.613469,-1.226936 0.09358,-0.467876 0,-0.954283 0,-1.431428 0,-1.754195 -0.04735,-3.605485 0.408979,-5.316725 0.448107,-1.6804 1.374892,-3.231896 1.840405,-4.907748 0.577106,-2.077583 0.882539,-4.253397 1.431427,-6.339176 0.680522,-2.585977 1.431428,-4.888227 1.431428,-7.56611"
       id="path785" />
    <path
       style="fill:#000000;stroke-width:0.264583"
       d="m 62.369297,57.052569 c -0.06817,0.545306 -0.288054,1.092758 -0.204491,1.635916 0.07692,0.499965 1.884024,3.182591 2.249384,3.680812 0.655405,0.893733 2.057903,2.671368 2.862853,3.476321 0.51236,0.512357 1.123558,0.919067 1.635916,1.431425 0.44437,0.44437 0.752038,1.019847 1.226939,1.431427 1.237263,1.072296 3.732757,2.64682 5.521216,2.249385 1.725719,-0.383493 2.540297,-3.643025 2.453873,-5.112237 -0.04082,-0.693931 -0.189159,-1.385438 -0.40898,-2.044896 -0.705575,-2.11673 -3.344428,-3.380449 -4.907748,-4.703257 -0.785003,-0.664234 -1.809459,-1.443868 -2.453873,-2.249384 -0.168161,-0.210204 0.04961,-0.613469 -0.408979,-0.613469"
       id="path791" />
    <path
       style="fill:#000000;stroke-width:0.264583"
       d="m 78.319476,61.346849 c 2.530514,1.265256 0.558715,-0.08213 1.431427,1.226937 0.160414,0.240622 0.458208,0.369488 0.613468,0.613468 0.540322,0.849074 0.981343,1.758196 1.431428,2.658364 1.115264,2.230527 1.34013,5.887185 4.294277,6.543664 1.40557,0.312349 3.56148,-0.144156 4.70326,-1.022448 0.49811,-0.383164 0.802288,-0.968174 1.226936,-1.431427 0.325692,-0.355299 0.646081,-0.721352 1.022448,-1.022448 0.317831,-0.254265 1.559285,-0.833369 1.840405,-1.226937 0.163354,-0.228695 0.0788,-0.566584 0.204491,-0.817956 0.08622,-0.172443 0.333034,-0.231773 0.408977,-0.40898 0.135374,-0.31587 0.382267,-2.313638 0.40898,-2.453873 0.260135,-1.365708 0.711329,-2.703623 0.817959,-4.089791 0.07189,-0.934646 0,-1.921439 0,-2.862853"
       id="path793" />
    <path
       style="fill:#000000;stroke-width:0.264583"
       d="m 59.710933,62.369297 c 1.082077,2.164157 -0.513321,-0.740997 1.431425,1.635916 0.347996,0.425326 0.498541,0.98424 0.817959,1.431425 1.035961,1.450345 2.934169,3.378676 4.29428,4.498769 2.653036,2.184852 7.700299,3.941746 11.042433,4.498768 2.146216,0.357704 5.106718,1.025758 7.15713,-0.204488 0.59373,-0.356238 0.611124,-5.931369 -0.204488,-6.339174 -0.192794,-0.0964 -0.420675,-0.108092 -0.613469,-0.204491 -0.219818,-0.10991 -0.375041,-0.349371 -0.613468,-0.408979 -0.330639,-0.08266 -0.682498,0.02429 -1.022448,0 -5.251579,-0.583507 1.311643,0.07716 -3.47632,-0.204489 -0.61618,-0.03624 -1.224365,-0.165986 -1.840408,-0.204488 -1.292576,-0.08079 -2.591535,0.05881 -3.8853,0 -0.684324,-0.03111 -1.361879,-0.151951 -2.044893,-0.204492 -0.271851,-0.0209 -0.625165,0.192797 -0.817959,0 -0.272654,-0.27265 0.340817,-0.204488 -0.204489,-0.204488"
       id="path795" />
    <path
       style="fill:#000000;stroke-width:0.264583"
       d="m 92.429252,63.391742 c 1.142611,0.07348 1.397974,1.064102 2.044896,1.840408 1.73551,2.082614 2.964254,2.73877 5.521216,3.680809 0.546476,0.201334 1.059976,0.527079 1.635916,0.613471 0.80891,0.121335 1.63591,0 2.45387,0 3.09189,0 5.55821,-0.439688 8.58856,-1.022448 0.74838,-0.14392 1.53809,-0.135406 2.24938,-0.40898 0.88746,-0.341328 0.41134,-1.779283 0,-2.249384 -2.16746,-2.477109 -5.29166,-3.499091 -8.38406,-4.29428 -0.55595,-0.142957 -5.5393,-0.836039 -6.33918,-1.635916"
       id="path797" />
    <path
       style="fill:#000000;stroke-width:0.264583"
       d="m 111.03779,67.277043 c 2.29755,0.526102 4.61332,1.146143 6.95265,1.431427 0.48141,0.05871 7.72152,0.458055 8.17958,0 0.61828,-0.618283 0.34538,-1.077182 0.40898,-1.840404 0.0415,-0.497764 0.43266,-2.341319 0.20449,-2.862853 -0.93448,-2.13596 -4.4019,-4.022521 -6.33918,-5.112239 -1.30584,-0.734537 -3.32381,-2.109013 -4.70326,-2.453873"
       id="path799" />
    <path
       style="fill:#000000;stroke-width:0.264583"
       d="m 122.6937,64.209702 c 1.02811,0.173082 1.63167,1.045757 2.65836,1.226936 2.18697,0.385935 7.94713,0.548783 8.58856,-2.658364 0.18763,-0.938136 0.46732,-1.942946 0.20449,-2.862852 -0.0837,-0.293106 -0.32139,-0.525979 -0.40898,-0.817957 -0.11914,-0.397134 -0.0734,-0.833594 -0.20449,-1.226939 -0.43135,-1.29404 -1.44415,-2.274827 -2.0449,-3.476321"
       id="path801" />
    <path
       style="fill:#000000;stroke-width:0.264583"
       d="m 128.62389,62.369297 c 0,0.613468 -0.0868,1.233101 0,1.840405 0.65077,4.555397 0.32286,0.911153 1.02245,3.47632 0.10909,0.400011 0.0589,0.838716 0.20449,1.226937 0.10861,0.289639 0.96546,1.052618 1.22694,1.226939 0.0567,0.03781 0.13632,0 0.20449,0 0.20448,0.136326 0.43968,0.235196 0.61346,0.408977 0.17379,0.173783 0.2352,0.439687 0.40898,0.613468 0.17378,0.173784 0.42851,0.247142 0.61347,0.40898 0.87056,0.761738 1.67575,1.597935 2.45387,2.453875 0.007,0.0082 1.05294,1.400937 1.22694,1.226937 0.39426,-0.394264 0.20449,-3.100213 0.20449,-3.680812 0,-0.954284 0.095,-1.913306 0,-2.862853 -0.27098,-2.709807 -1.10458,-5.318426 -1.63591,-7.975089 -0.28089,-1.404445 -0.3962,-2.92354 -0.81796,-4.29428 -0.24222,-0.787199 -0.80574,-1.454788 -1.02245,-2.249384 -0.30836,-1.130658 -0.0215,-1.657451 -0.81796,-2.453876"
       id="path803" />
    <path
       style="fill:#000000;stroke-width:0.264583"
       d="m 133.94062,71.162343 c 0.38988,4.342471 0.20449,8.727189 0.20449,13.087329 0,0.512056 -0.13323,2.525135 0,2.658364 0.53888,0.538877 0.72224,-1.344428 1.02245,-2.044896 0.73634,-1.718143 1.29311,-1.954898 1.43142,-3.476321 0.12633,-1.38966 0,-2.90499 0,-4.29428 0,-1.09061 0.0906,-2.184987 0,-3.271832 -0.0516,-0.619363 -0.40898,-0.77126 -0.40898,-1.226936"
       id="path805" />
    <path
       style="fill:#000000;stroke-width:0.264583"
       d="m 52.144821,79.955392 c -0.816642,1.471131 -0.613468,2.899481 -0.613468,4.498768 0,1.329113 -0.01879,1.579571 0.408979,2.862855 0.286772,0.860319 0.613469,1.751174 0.613469,2.658362 0,0.340817 0,0.681632 0,1.022448 0,0.06816 -0.06817,0.204491 0,0.204491 0.06816,0 -0.01336,-0.137652 0,-0.204491 0.05512,-0.275585 0.09184,-0.560478 0.204488,-0.817957 0.540663,-1.2358 1.5503,-3.070879 2.249384,-4.29428 0.197194,-0.345088 0.499261,-0.641752 0.613469,-1.022448 0.05425,-0.180816 0.204491,-2.303576 0.204491,-2.658364 0,-0.520573 0.02614,-2.044893 -0.613468,-2.044893"
       id="path809" />
    <path
       style="fill:#000000;stroke-width:0.264583"
       id="path821"
       d="m 51.039032,89.533618 c 0.174662,2.200904 0.135215,4.409741 0.0687,6.614059 -0.03325,1.778752 0.01588,3.557717 0.0026,5.336723 -0.05318,1.5807 -0.03096,3.16236 0.005,4.74312 0.10105,1.25964 0.07726,2.53081 0.258122,3.78419 0.160729,1.11384 0.462646,2.21032 0.779177,3.28753 0.416629,1.12641 0.800931,2.27039 1.251564,3.38422 0.282212,0.69754 0.595593,1.38211 0.884468,2.07692 0.872042,1.86843 1.856951,3.68419 2.815862,5.50976 1.047221,2.244 1.999202,4.52892 3.229015,6.68166 1.050353,1.72187 2.319369,3.30906 3.736988,4.74112 1.367499,1.16777 2.851803,2.18725 4.282316,3.27459 1.437245,1.06839 2.794992,2.2272 4.062404,3.49097 0.875805,0.7793 1.583193,1.72886 2.515391,2.4436 1.216509,0.70285 2.417868,1.43261 3.649528,2.10856 0.415856,0.11426 0.356433,0.071 0.730112,0.2784 0.128842,0.0715 0.50628,0.30173 0.378304,0.22869 -5.009848,-2.85905 -2.674644,-1.54322 0.931127,0.43979 1.260258,0.3342 2.53905,0.57938 3.816167,0.83753 0.917083,0.16347 1.80906,0.44801 2.721706,0.62975 0.47666,0.0949 0.795226,0.11907 1.273262,0.17066 0.192741,0.026 0.385299,0.0534 0.578223,0.078 0.179856,0.0229 0.361286,0.0346 0.540083,0.0647 0.470154,0.0792 0.915334,0.23903 1.390317,0.29257 0.484928,0.0475 0.97205,-0.0275 1.456888,-0.0235 0.06393,5.2e-4 1.36457,0.0728 1.371129,0.0731 1.697937,0.14103 3.388286,-0.17692 5.052976,-0.47791 1.499909,-0.26029 2.814019,-1.02076 4.110019,-1.77577 0.96287,-0.47045 1.85556,-1.0801 2.82101,-1.54509 0.21912,-0.10554 0.58362,-0.22372 0.81678,-0.30382 0.67903,-0.23345 1.1969,-0.74454 1.84989,-1.02244 0.1266,-0.0622 0.25919,-0.11339 0.3798,-0.1865 0.12195,-0.0739 0.67699,-0.5028 0.76961,-0.57635 0.48386,-0.38428 0.96026,-0.77909 1.43668,-1.17252 1.31511,-1.1094 2.65609,-2.18551 3.96728,-3.30057 1.56069,-1.29318 3.10186,-2.61402 4.54865,-4.03424 1.3866,-1.40788 2.67674,-2.9081 3.89541,-4.46253 1.35386,-1.7179 2.60043,-3.50968 3.76333,-5.36095 1.2805,-1.84157 2.21119,-3.88468 3.348,-5.81151 1.17017,-2.10072 1.92338,-4.40885 2.61506,-6.70367 0.094,-0.36172 0.20083,-0.72037 0.28212,-1.08516 0.10237,-0.45946 0.17285,-0.92551 0.26857,-1.38639 0.39032,-1.87936 0.79805,-3.74696 1.10398,-5.64275 0.40948,-2.84991 0.47108,-5.736762 0.56171,-8.610621 -0.0636,-2.398853 0.0175,-4.791728 0.15902,-7.18558 0.0548,-1.00869 0.29958,-1.993141 0.38499,-2.997409 0.003,-0.546518 -1e-5,-1.09369 -0.0122,-1.640205 0,0 -3.48791,-1.772899 -3.48791,-1.772899 v 0 c -0.002,0.540475 0.0279,1.08059 0.0197,1.621197 10e-4,1.035616 -0.12609,2.065727 -0.18645,3.098456 -0.0756,2.419384 -0.0564,4.835295 -0.0475,7.255666 0.006,1.478989 -0.009,2.952517 -0.11039,4.428985 -0.10269,1.50195 -0.12751,1.45702 -0.30431,2.91408 -0.0492,0.40568 -0.0949,0.81178 -0.14234,1.21767 -0.17898,1.39957 -0.39285,2.78872 -0.70034,4.16711 -0.18385,0.82418 -0.50067,1.9736 -0.70652,2.80284 -0.0894,0.36027 -0.17106,0.72243 -0.25659,1.08365 -0.63495,2.30635 -1.43054,4.51308 -2.60211,6.60797 -1.11411,1.93367 -2.05285,3.96742 -3.32098,5.8114 -1.17232,1.82953 -2.42152,3.60658 -3.77495,5.30774 -1.23931,1.51762 -2.50408,3.02404 -3.87994,4.41995 -1.44301,1.40949 -2.97945,2.72209 -4.52653,4.01546 -0.43068,0.35874 -1.1228,0.94188 -1.56908,1.28779 -0.83365,0.64617 -1.71518,1.23456 -2.50008,1.94205 -0.82185,0.66084 -1.64889,1.3708 -2.61494,1.80754 -0.61356,0.32071 -1.17071,0.7441 -1.8165,1.00709 -1.24807,0.52037 -2.27794,1.44102 -3.519897,1.98488 -1.321383,0.64773 -2.618029,1.39139 -4.085995,1.65414 -1.652889,0.31463 -3.329218,0.56956 -5.015537,0.39125 -0.97721,-0.0688 -1.956893,-0.0817 -2.931829,-0.16674 -0.806218,-0.14907 -1.611734,-0.2925 -2.430143,-0.36136 -1.345985,-0.16525 -2.645698,-0.54167 -3.970665,-0.8201 -1.275602,-0.24465 -2.556439,-0.48875 -3.787071,-0.91434 0.927282,0.55284 3.735869,2.1638 2.781847,1.65851 -1.263652,-0.66929 -2.47115,-1.43965 -3.71163,-2.15097 -0.415819,-0.23844 -0.368671,-0.18915 -0.780085,-0.36275 -0.11798,-0.0498 -0.460986,-0.22145 -0.351461,-0.1551 0.985731,0.59717 1.988341,1.16601 2.982512,1.74902 -0.17151,-0.11409 -0.509902,-0.33424 -0.661238,-0.45745 -0.731618,-0.59566 -1.294128,-1.3767 -2.017866,-1.98242 -0.34803,-0.35578 -0.791078,-0.81729 -1.156364,-1.15668 -0.927121,-0.8614 -1.958959,-1.60489 -2.941019,-2.40041 -1.401595,-1.11368 -2.878272,-2.12571 -4.286609,-3.23124 -0.234445,-0.22178 -0.477449,-0.43484 -0.703334,-0.66533 -1.18077,-1.20481 -2.151573,-2.60042 -3.088863,-3.99609 -0.468079,-0.75049 -0.703344,-1.09612 -1.118518,-1.90036 -0.801835,-1.55327 -1.462341,-3.17363 -2.154348,-4.77687 -0.476787,-0.93127 -0.925923,-1.87701 -1.411047,-2.8039 -0.36104,-0.68981 -0.548772,-1.00481 -0.939464,-1.69108 -0.171111,-0.32378 -0.323472,-0.65713 -0.485209,-0.9857 -0.139234,-0.35745 -0.278468,-0.7149 -0.417705,-1.07234 -0.136999,-0.32131 -0.283777,-0.63863 -0.410994,-0.96393 -0.438115,-1.12029 -0.783801,-2.27752 -1.270058,-3.38003 -0.42247,-1.18294 -0.307276,-0.76778 -0.624578,-2.07006 -0.09635,-0.39543 -0.210759,-0.78761 -0.276839,-1.18921 -0.201459,-1.22436 -0.148539,-2.46938 -0.17731,-3.70372 0.03681,-1.57906 0.05743,-3.15898 0.005,-4.738 -0.01312,-1.77812 0.03582,-3.556176 0.0026,-5.334041 -0.06384,-2.18082 -0.111853,-4.367011 0.0687,-6.544056 0,0 -3.438514,-1.75201 -3.438514,-1.75201 z" />
    <path
       style="fill:#000000;stroke-width:0.264583"
       id="path823"
       d="m 70.758163,90.10516 c 0.965433,-0.491331 1.924389,-0.995286 2.860561,-1.541833 1.277477,-0.745574 2.561402,-0.922814 4.013338,-1.010819 1.328682,0.0011 2.668312,-0.02934 3.99144,0.106714 0.813827,0.231542 1.588511,0.577818 2.394649,0.830681 1.235067,0.387405 -0.06915,-0.06078 1.081804,0.344577 0.443143,0.122973 0.884344,0.291052 1.301642,0.485503 0.276884,0.129016 0.512678,0.295542 0.800978,0.402637 0.416142,0.132101 0.82917,0.272301 1.231318,0.444828 0,0 -3.036311,-2.389491 -3.036311,-2.389491 v 0 c -0.425508,-0.162568 -0.854146,-0.317268 -1.276045,-0.48894 -0.658397,-0.321201 -1.333006,-0.61073 -2.042396,-0.802108 -1.16818,-0.370914 -2.316456,-0.81552 -3.51246,-1.087107 -1.321816,-0.08148 -2.650228,-0.09601 -3.972663,-0.01934 -1.461334,0.134866 -2.908591,0.325811 -4.189846,1.100818 -0.941671,0.568507 -1.913978,1.095644 -2.941648,1.491541 0,0 3.295639,2.13234 3.295639,2.132339 z" />
    <path
       style="fill:#000000;stroke-width:0.264583"
       id="path825"
       d="m 68.170218,88.036237 c 2.033066,1.762821 4.423195,3.081957 6.879889,4.161539 0.223914,0.08744 0.450688,0.167884 0.671742,0.262319 0.205418,0.08775 0.3975,0.206441 0.606994,0.283958 0.228023,0.08437 0.466675,0.136761 0.701395,0.20016 0.74255,0.200576 1.486347,0.362466 2.242933,0.498851 1.603815,0.313772 3.237648,0.317185 4.864309,0.328954 1.172324,-0.0524 2.338174,-0.200806 3.45222,-0.575342 0.380699,-0.181388 0.810475,-0.321871 1.145315,-0.588997 0.246304,-0.196493 0.459328,-0.483703 0.662898,-0.724127 0.374213,-0.386173 0.496274,-0.919139 0.711226,-1.392913 0,0 -3.431413,-1.924851 -3.431413,-1.924851 v 0 c -0.179768,0.451448 -0.279177,0.944819 -0.635473,1.305454 -0.170984,0.213326 -0.339818,0.467291 -0.560591,0.633383 -0.318916,0.239925 -0.711468,0.37138 -1.072862,0.527759 -1.076013,0.323959 -2.180571,0.508672 -3.306702,0.533792 -1.615744,0.0085 -3.236626,-0.05444 -4.823624,-0.385752 -0.748207,-0.148796 -1.494144,-0.309041 -2.222095,-0.541247 -0.668464,-0.213233 -0.674092,-0.246246 -1.296643,-0.508633 -0.217128,-0.09151 -0.435867,-0.179149 -0.653802,-0.268727 -1.156237,-0.53594 -3.899741,-1.970857 1.177097,0.823453 0.218985,0.120531 -0.412149,-0.283255 -0.611603,-0.433922 -0.172386,-0.130223 -0.334735,-0.27323 -0.503338,-0.408316 -0.133434,-0.106907 -0.268501,-0.211764 -0.402751,-0.317645 0,0 -3.595121,-1.48915 -3.595121,-1.48915 z" />
    <path
       style="fill:#000000;stroke-width:0.264583"
       id="path827"
       d="m 100.31948,90.127795 c 1.37817,-0.451017 2.74474,-0.942369 4.14478,-1.324943 0.95949,-0.262189 1.60369,-0.378764 2.57484,-0.578562 1.81398,-0.325369 3.65958,-0.388956 5.49259,-0.229645 0.66618,0.02694 1.33401,0.03288 1.98731,0.186812 0.48214,0.113604 0.93497,0.289319 1.40128,0.453853 0.95845,0.281522 1.89697,0.626758 2.79613,1.063326 0.30719,0.149153 0.59824,0.329501 0.89763,0.493749 -1.02502,-0.584107 -2.05004,-1.168215 -3.07507,-1.752322 0,0 3.63039,1.432153 3.63039,1.432153 v 0 c -1.18829,-0.699657 -2.37658,-1.39931 -3.56487,-2.098964 -1.16342,-0.593495 -2.37722,-1.063066 -3.63058,-1.431827 -0.62458,-0.210645 -0.86715,-0.315854 -1.49424,-0.444241 -0.67898,-0.139006 -1.37365,-0.154723 -2.06314,-0.187068 -1.77847,0.0026 -3.56234,0.171241 -5.31357,0.473223 -1.25867,0.274423 -1.32357,0.272799 -2.57681,0.610219 -1.46881,0.39546 -2.921314,0.865053 -4.416159,1.156626 0,0 3.209489,2.177611 3.209489,2.177611 z" />
    <path
       style="fill:#000000;stroke-width:0.264583"
       id="path829"
       d="m 98.361634,87.955947 c 0.941961,0.573625 1.863596,1.178848 2.801616,1.758683 1.24657,0.700773 2.46717,1.449893 3.73972,2.102315 0.21256,0.10898 1.21339,0.216673 1.39734,0.242851 0.7189,0.102304 1.43074,0.195744 2.15422,0.260247 1.23827,0.113686 2.46655,-0.0079 3.68938,-0.198065 0.83521,-0.10958 1.67401,-0.25755 2.48688,-0.482367 0.19273,-0.05331 0.37944,-0.126365 0.56916,-0.18955 0.20014,-0.05458 0.40028,-0.109159 0.60042,-0.16374 1.10722,-0.295169 2.21463,-0.575384 3.30456,-0.932918 0.57526,-0.153408 1.17463,-0.330634 1.5909,-0.776605 0,0 -3.36758,-2.046957 -3.36758,-2.046957 v 0 c -0.35718,0.386212 -0.89323,0.516702 -1.37324,0.68167 -1.0854,0.342913 -2.19458,0.594309 -3.28281,0.926465 -1.19136,0.322381 -2.37725,0.683241 -3.61128,0.807455 -1.21338,0.143317 -2.43086,0.231405 -3.65206,0.121092 -0.70559,-0.06001 -1.40712,-0.135086 -2.10469,-0.261059 -0.25542,-0.04613 -0.51233,-0.08819 -0.76288,-0.155977 -1.25434,-0.339363 -2.839023,-1.520606 2.18489,1.44068 -0.36702,-0.216059 -0.61593,-0.355579 -0.97139,-0.593535 -0.16135,-0.108008 -0.31177,-0.232095 -0.47567,-0.336193 -0.41693,-0.264813 -0.88599,-0.454427 -1.25526,-0.791622 0,0 -3.662226,-1.41287 -3.662226,-1.41287 z" />
    <ellipse
       style="fill:#000000;stroke-width:0.264583"
       id="path831"
       cx="79.750908"
       cy="89.361908"
       rx="2.2493844"
       ry="1.635916" />
    <ellipse
       style="fill:#000000;stroke-width:0.264583"
       id="path841"
       cx="108.27719"
       cy="89.055176"
       rx="1.3291817"
       ry="1.7381607" />
    <path
       style="fill:#000000;stroke-width:0.264583"
       id="path843"
       d="m 90.660875,98.746184 c -0.04892,0.632878 -0.20547,1.250313 -0.296246,1.877086 -0.133879,0.92437 -0.05549,0.76841 -0.240821,1.70042 -0.0528,0.26551 -0.125413,0.5267 -0.188121,0.79004 -0.253744,0.86283 -0.288788,1.83151 -0.814166,2.59513 -0.07152,0.10396 -0.163277,0.19244 -0.244914,0.28865 -0.08142,0.10422 -0.166362,0.20576 -0.244242,0.31264 -0.246465,0.33824 -0.254172,0.41765 -0.545325,0.72235 -0.264544,0.27686 -0.571518,0.52821 -0.84814,0.79457 -0.71237,0.657 -1.457008,1.28137 -2.244842,1.84793 -0.631063,0.33243 -1.131419,0.86631 -1.795991,1.13776 -0.245851,0.10042 -0.598866,0.17853 -0.851977,0.242 -0.973148,0.25051 -1.965463,0.43412 -2.969017,0.50018 -0.08877,0.002 -0.451704,-0.016 -0.551254,0.0649 -0.149772,0.1218 -0.274415,0.4281 -0.03349,0.57573 1.766006,1.08215 2.665042,1.52152 4.109839,2.23871 -0.95086,-0.54123 -1.897536,-1.08987 -2.852573,-1.62368 -0.156102,-0.0872 0.306739,0.18422 0.455321,0.28374 0.254614,0.17055 0.458692,0.35446 0.723561,0.50992 3.613285,2.12072 2.333935,1.65331 4.00789,2.23153 0.823349,0.0781 1.643605,0.20277 2.471661,0.22857 0.745979,-0.10159 1.606087,-0.0788 2.24826,-0.53912 0.08983,-0.0644 0.15884,-0.15373 0.238262,-0.23059 0.265322,-0.30605 0.226304,-0.90931 0.566052,-1.12952 0.826408,1.13429 0.02527,-0.008 -3.109695,-1.60104 -0.107045,-0.0544 0.184354,0.15508 0.264827,0.2442 0.312309,0.34586 0.542282,0.77304 0.799203,1.15926 1.137674,1.67561 2.459408,1.92868 4.522882,3.12066 0.327031,0.18891 0.193966,0.12828 0.543566,0.22867 0.764058,0.0849 1.533054,0.0275 2.27081,-0.18316 0.809329,-0.27858 1.221081,-0.72997 1.538063,-1.50181 0.403748,-1.83593 -0.206362,-1.18373 -3.322498,-2.28932 -0.125857,-0.0446 0.129831,0.23344 0.197022,0.34884 0.07441,0.12782 0.151839,0.25385 0.227756,0.38077 0.08882,0.11598 0.167987,0.24004 0.266465,0.34794 0.143502,0.15723 0.523092,0.47668 0.701643,0.58141 2.103538,1.23393 2.886115,1.9785 4.780474,2.4264 1.17942,0.34274 2.41908,0.31384 3.63178,0.22192 1.24586,-0.10827 2.53208,-0.24845 3.69955,-0.73058 0.21869,-0.0903 0.4248,-0.20849 0.63721,-0.31274 0.16092,-0.10848 0.34327,-0.19052 0.48278,-0.32544 0.1669,-0.1614 0.54795,-0.88906 0.20405,-1.09798 -3.55209,-2.15791 -2.43677,-2.0311 -4.515,-2.06242 -1.46756,-0.0394 -2.92973,-0.14812 -4.34727,-0.54657 -0.280842,-0.0959 -0.645493,-0.2089 -0.912529,-0.34447 -0.14214,-0.0722 -0.547489,-0.32673 -0.408882,-0.248 4.717351,2.6794 3.007291,1.85164 1.759641,0.8517 -1.01423,-0.98495 -1.584577,-2.29704 -2.281592,-3.50335 -0.732412,-1.30351 -1.35722,-2.66552 -1.994432,-4.01784 -0.590976,-1.00328 -1.038045,-1.9968 -1.238726,-3.14615 -0.06233,-1.07943 -0.251802,-2.14473 -0.355386,-3.219732 -0.0019,-0.251428 -0.04419,-0.496996 -0.09804,-0.741334 0,0 -3.550127,-1.692108 -3.550127,-1.692108 v 0 c 0.07677,0.236612 0.172863,0.463167 0.171818,0.717841 0.171945,1.079233 0.399743,2.152976 0.401018,3.251253 0.157274,1.2351 0.556168,2.22196 1.232996,3.26949 0.667133,1.35384 1.280737,2.73431 2.01078,4.05541 0.699852,1.21939 1.253953,2.53709 2.191015,3.60383 0.360526,0.33019 0.558829,0.5472 0.978492,0.79721 1.668635,0.99407 3.252164,2.18255 5.138084,2.69118 1.4278,0.29401 2.87862,0.36012 4.32969,0.4592 1.88702,0.28195 0.77338,0.21679 -2.11621,-1.69251 -0.0124,-0.008 0.35069,-0.002 0.31185,0.28004 -0.0433,0.31393 -0.32186,0.41596 -0.54797,0.57974 -0.19715,0.094 -0.38765,0.20344 -0.59145,0.28195 -1.15658,0.44553 -2.41965,0.55849 -3.64313,0.65016 -1.217317,0.039 -2.439544,0.002 -3.613789,-0.35836 -1.453491,-0.44239 -3.054498,-1.50026 1.832864,1.3183 0.602081,0.34722 -0.516437,-0.33247 -0.721145,-0.49868 -0.10632,-0.0863 -0.197766,-0.18952 -0.296651,-0.28428 -0.0731,-0.11871 -0.150392,-0.23495 -0.219303,-0.35614 -0.05799,-0.102 -0.05988,-0.25366 -0.161133,-0.31295 -5.071071,-2.96944 -3.373218,-3.06411 -3.671539,-1.23369 -0.241982,0.72605 -0.561821,0.97621 -1.297291,1.20815 -0.711015,0.14755 -1.471642,0.19745 -2.17069,-0.0355 -1.176385,-0.57348 -2.788941,-1.56208 2.489975,1.50713 0.120645,0.0701 -0.240752,-0.14257 -0.35134,-0.22769 -0.349244,-0.26883 -0.341331,-0.31729 -0.602628,-0.68348 -1.083154,-1.48068 -2.22187,-4.53399 -4.834908,-3.40576 -0.291391,0.32944 -0.384718,0.74697 -0.539885,1.15086 -0.583372,0.56174 -1.517462,0.50252 -2.270133,0.53035 -0.804611,-0.0615 -1.631014,-0.10598 -2.404907,-0.3417 -1.367414,-0.66412 -0.256296,-0.13426 2.638571,1.56142 0.125981,0.0738 -0.264139,-0.127 -0.384927,-0.20902 -0.132416,-0.0899 -0.242128,-0.20996 -0.371295,-0.30448 -1.303469,-0.95382 -3.065507,-1.2532 -4.183591,-2.44477 -1.638978,-0.71073 0.451863,0.17441 2.56463,1.5879 0.114101,0.0763 -0.432546,-0.005 -0.398023,0.23742 0.02278,0.15992 0.546343,-0.3674 0.480491,-0.063 1.000186,-0.14249 1.998898,-0.31895 2.978203,-0.56788 0.438975,-0.12336 0.50193,-0.11674 0.896961,-0.3168 0.647076,-0.32772 1.169765,-0.83859 1.800677,-1.19393 0.462982,-0.32479 0.888892,-0.67849 1.331527,-1.02989 0.255021,-0.20246 0.526761,-0.38407 0.773903,-0.59607 0.08396,-0.072 0.15448,-0.15837 0.231722,-0.23756 0.58597,-0.59334 1.184677,-1.17213 1.645891,-1.87386 0.29155,-0.37126 0.532855,-0.73953 0.665726,-1.20076 0.178433,-0.61938 0.168259,-1.28334 0.363384,-1.8998 0.318432,-1.4356 0.477478,-2.90021 0.896197,-4.31279 0,0 -3.4578,-1.824096 -3.4578,-1.824096 z" />
    <path
       style="fill:#000000;stroke-width:0.264583"
       d="m 72.798259,128.82838 c 0.340818,0.0682 0.702985,0.0676 1.022448,0.20449 0.177207,0.076 0.248565,0.30204 0.40898,0.40898 0.72545,0.48363 3.277917,1.5006 4.089789,1.63592 1.545037,0.2575 3.174849,-0.0502 4.703259,0.20449 2.682687,0.44711 6.245725,0.68416 8.997537,0.40898 0.279649,-0.028 0.538308,-0.17653 0.81796,-0.2045 1.132065,-0.1132 1.201896,0.17642 2.249384,-0.20448 0.429723,-0.15627 0.798798,-0.45292 1.226936,-0.61347 0.666332,-0.24988 1.394587,-0.32445 2.044896,-0.61347 0.587627,-0.26117 1.048287,-0.76128 1.635916,-1.02245 0.650306,-0.28902 1.377126,-0.36745 2.044896,-0.61347 5.93395,-2.18619 -4.328594,0.9336 5.52121,-1.63591 0.41264,-0.10765 1.05303,-0.61347 1.22694,-0.61347"
       id="path929" />
    <path
       style="fill:#000000;stroke-width:0.264583"
       d="m 49.895437,83.022735 c -0.22891,2.303841 -0.510239,4.644753 -0.817957,6.952642 -0.150977,1.132313 -0.383651,2.120881 0,3.271832 0.217847,0.653547 1.01786,0.813371 1.431425,1.226939 0.69542,0.69542 0.297153,1.226936 1.431427,1.226936"
       id="path937" />
    <path
       style="fill:#000000;stroke-width:0.264583"
       d="m 137.21245,82.204776 c 0.37569,0.987851 1.0975,1.861084 1.43143,2.862855 0.26052,0.781558 0.20449,1.454753 0.20449,2.249384 0,2.206437 0.0324,4.041122 -1.22694,5.930194 -0.10694,0.160417 -0.30204,0.248565 -0.40898,0.40898 -0.4266,0.639905 -0.57293,1.431427 -1.43143,1.431427"
       id="path939" />
    <path
       style="fill:#000000;stroke-width:0.264583"
       d="M 149.07284,112.46922 59.915422,22.493844"
       id="path941" />
    <path
       style="fill:#000000;stroke-width:0.264583"
       id="path949"
       d="m 65.196179,138.3003 c -0.420602,0.66038 -0.830691,1.32758 -1.261805,1.98115 -0.46154,0.69968 -0.944616,1.38492 -1.415833,2.07812 -1.13918,1.67585 -1.441048,2.21337 -2.681537,3.73313 -0.388273,0.47569 -0.774422,0.95679 -1.214337,1.38518 -0.390072,0.37985 -0.844587,0.68734 -1.26688,1.03102 -2.672408,1.78057 -0.250783,0.14319 -3.314031,2.30036 -0.675269,0.47553 -1.36272,0.93365 -2.036236,1.41167 -1.467217,1.04133 -2.263777,1.72179 -3.783816,2.60425 -0.434314,0.25214 -0.899057,0.44778 -1.348584,0.67167 -0.359953,0.13777 -0.720937,0.27286 -1.079855,0.4133 -0.635325,0.24859 -1.275244,0.52589 -1.921235,0.74641 -2.185966,0.74622 -0.451524,0.0944 -2.688672,0.81211 -0.536268,0.17205 -1.063908,0.36992 -1.59586,0.55488 -1.274228,0.57592 -2.677298,0.71618 -3.999069,1.12807 -0.406217,0.12658 -0.792975,0.30964 -1.19621,0.44543 -0.424119,0.14282 -0.856451,0.25998 -1.284674,0.38997 -0.474073,0.16484 -0.948145,0.32968 -1.422218,0.49452 -3.47591,1.33994 -6.956179,2.66483 -10.406651,4.06969 -1.810292,0.78442 -3.546026,1.74406 -5.187652,2.83834 -0.628775,0.41913 -1.229779,0.87852 -1.84107,1.32277 -0.561098,0.40776 -1.136357,0.7975 -1.676043,1.23321 -0.454095,0.3666 -0.867823,0.78057 -1.301734,1.17086 -0.355983,0.39321 -0.727205,0.77315 -1.067949,1.17964 -0.3584782,0.42765 -0.6788876,0.88594 -1.0282704,1.32105 -1.3155507,1.63834 -1.3740196,1.58738 -2.7776498,3.43587 -0.829256,1.09207 -1.3167595,1.83883 -2.0475019,2.92177 -0.1535359,0.22992 -0.326386,0.44805 -0.4606073,0.68975 -0.604153,1.08793 0.2220389,-0.0489 -0.5186892,1.08774 -0.1388096,0.21301 -0.3222376,0.39486 -0.4588708,0.60927 -2.00322326,3.1436 0.3968702,-0.27141 -2.02008243,3.06082 -0.75027974,0.83382 -1.3205963,1.80463 -2.01664567,2.67927 -0.1801787,0.22641 -0.3841601,0.43358 -0.5922165,0.63467 -0.046876,0.0453 -0.19921,0.0429 -0.168013,0.10011 2.59848891,4.76795 1.57177142,2.07079 2.13274707,3.56433 -2.96855507,-5.82411 -1.70031657,-3.56881 -1.34326177,-2.13334 0.037539,0.15092 0.068239,0.30365 0.093199,0.45716 0.013312,0.0819 -0.014495,0.17315 0.021445,0.2479 0.57645141,1.19899 1.20554987,2.37195 1.8083248,3.55793 0,0 -1.35791872,-3.73207 -1.35791872,-3.73207 v 0 c 0.55418727,1.15312 1.06617028,2.3275 1.66256182,3.45938 0.051326,0.0974 5.159e-4,-0.22084 -0.01369,-0.33003 -0.021955,-0.16873 -0.05888,-0.33526 -0.094524,-0.50164 -0.40152357,-1.87426 -0.64734874,-2.46152 -2.1517832,-4.68789 -1.6862464,-0.26543 -0.5448854,-0.20058 1.24148549,3.49366 0.0368425,0.0762 -0.07769511,-0.17102 -0.04634717,-0.24963 0.11973117,-0.30025 0.30512343,-0.57086 0.48154383,-0.84171 0.29845137,-0.4582 0.62562585,-0.89706 0.94167165,-1.3433 0.3364212,-0.47502 0.6771387,-0.94698 1.0157081,-1.42047 0.733793,-0.90582 1.4571853,-1.82009 2.1957506,-2.72203 0.1877184,-0.22924 0.7959547,-0.88971 0.9272902,-1.18716 0.2005589,-0.45423 -0.065208,-1.06008 0.4562806,-1.41799 0.6200042,-1.30125 0.8664276,-1.96587 1.8259723,-3.18909 0.5070338,-0.64637 1.122634,-1.19972 1.6759854,-1.80691 0.419982,-0.46084 0.841789,-0.92046 1.243867,-1.397 0.694106,-0.82265 1.302125,-1.71611 2.040874,-2.50234 0.405397,-0.41638 0.780734,-0.8643 1.216189,-1.24914 0.520375,-0.45988 1.089323,-0.86192 1.644556,-1.27905 0.596163,-0.44788 1.179841,-0.91573 1.809181,-1.31565 1.651379,-1.04939 3.473709,-1.81767 5.24486,-2.63261 1.163668,-0.54607 1.991629,-0.95295 3.202679,-1.43899 2.36389,-0.94871 4.792223,-1.72971 7.192046,-2.57942 0.477118,-0.14888 0.952286,-0.30416 1.431351,-0.44665 0.4381,-0.13031 0.884439,-0.23272 1.319871,-0.37167 0.394597,-0.12593 0.773613,-0.29774 1.168596,-0.42245 0.392631,-0.12397 0.798523,-0.20249 1.192242,-0.32296 0.254955,-0.078 2.675138,-0.91797 2.761218,-0.94773 0.241969,-0.0704 2.625368,-0.76717 2.990331,-0.86211 0.462143,-0.12022 0.935398,-0.19682 1.39437,-0.32862 1.053859,-0.30264 2.01471,-0.83719 2.991411,-1.31972 0.430205,-0.28308 0.869363,-0.55299 1.290611,-0.84922 2.776551,-1.95257 0.637527,-0.59378 3.72478,-2.71248 1.522532,-1.04487 2.433828,-1.56627 3.977942,-2.53177 0.509381,-0.3185 1.01501,-0.64297 1.522516,-0.96445 0.429747,-0.37204 0.896614,-0.70509 1.289238,-1.11612 0.436604,-0.45707 0.809087,-0.97206 1.188415,-1.47768 1.86517,-2.48616 3.371707,-5.23961 5.47877,-7.54431 0,0 -1.707857,-3.14103 -1.707857,-3.14103 z" />
    <path
       style="fill:#000000;stroke-width:0.264583"
       id="path951"
       d="m 119.52313,134.6767 c 0.56608,1.75158 0.50578,3.59157 0.66633,5.39884 0.0621,0.69891 0.20171,2.10163 0.52759,2.81117 0.62143,1.35303 1.36358,2.64728 2.04537,3.97093 0.91615,0.85133 1.78201,1.00063 2.93571,1.34101 0.68027,0.20071 1.34917,0.43813 2.02378,0.65708 0.47211,0.12252 0.94272,0.25092 1.41631,0.36756 0.5629,0.13865 1.13481,0.24161 1.69298,0.39824 0.95402,0.26773 2.72557,0.88813 3.66144,1.24946 0.64501,0.24904 1.27673,0.53147 1.9204,0.78395 0.75174,0.29487 1.51033,0.57199 2.26549,0.85798 2.60848,0.90542 5.15987,1.97546 7.79018,2.8193 1.94991,0.62556 3.07648,0.84311 4.97852,1.49937 0.70979,0.2449 1.40178,0.53862 2.10268,0.80793 7.72773,3.4297 15.41941,7.00874 22.58581,11.52409 1.03174,0.65007 2.00491,1.38878 3.00737,2.08318 0.42699,0.36529 0.89028,0.69199 1.28097,1.09587 0.15678,0.16207 0.4471,0.78308 0.3431,0.58301 -0.51955,-0.99951 -0.98878,-2.02942 -1.5901,-2.98198 -0.14594,-0.23118 0.11666,0.53573 0.20843,0.79326 0.18755,0.52627 0.40445,1.04196 0.62803,1.55397 0.33909,0.77655 0.70638,1.54049 1.05957,2.31074 1.54757,3.3303 3.14505,6.6458 4.97503,9.83194 0.33963,0.59134 0.71651,1.16083 1.05436,1.75319 0.63354,1.11083 1.2173,2.24936 1.83566,3.36871 3.10108,5.90159 -1.06117,-1.97173 1.82617,3.34828 0.44923,0.82772 0.82325,1.69603 1.29623,2.51042 0.002,0.004 0.514,0.75463 0.65001,0.95419 -1.49776,-3.96778 -0.24289,-3.19876 -1.80157,-4.03104 0,0 1.33202,3.62938 1.33202,3.62938 v 0 c 1.35058,0.99907 0.38809,0.39308 -0.75404,-3.32776 -0.45966,-0.4623 -0.75583,-1.16053 -1.05134,-1.712 -0.81925,-1.52881 -1.70849,-3.01643 -2.49061,-4.56542 -0.29765,-0.5473 -1.49708,-2.76505 -1.85259,-3.37381 -0.32498,-0.55648 -0.68415,-1.09253 -1.00858,-1.64934 -0.38444,-0.65981 -0.70421,-1.35774 -1.1176,-1.99981 -0.0825,-0.12816 0.18356,0.57871 0.115,0.44258 -0.4187,-0.83135 -0.77952,-1.69061 -1.16928,-2.53592 -0.43565,-0.98953 -1.05435,-2.32153 -1.43367,-3.3942 -0.0788,-0.22282 -0.0966,-0.4657 -0.18803,-0.68363 -0.54609,-1.30159 -1.09031,-2.6063 -1.72191,-3.86861 -0.0675,-0.13492 -0.2219,-0.20942 -0.35451,-0.28135 -0.34751,-0.18852 -0.71838,-0.33034 -1.07758,-0.49552 -4.1838,-2.13959 -2.18784,-1.10031 -7.55098,-3.95849 -1.99067,-1.06089 -4.00194,-2.08418 -5.96948,-3.18736 -4.0697,-2.28186 -7.98171,-4.88021 -12.25796,-6.78371 -3.68634,-1.31689 -0.50097,-0.2432 -4.38775,-1.36397 -3.5529,-1.02449 -7.03988,-2.27496 -10.45081,-3.70076 -0.76719,-0.32215 -1.53568,-0.64123 -2.30157,-0.96645 -0.65655,-0.27879 -1.30066,-0.5877 -1.9657,-0.84558 -0.58023,-0.22499 -1.17885,-0.39933 -1.76728,-0.60191 -0.64577,-0.22232 -1.28423,-0.46652 -1.9353,-0.6728 -0.56611,-0.17936 -1.1431,-0.32241 -1.71465,-0.48362 -0.48111,-0.15865 -0.96223,-0.3173 -1.44335,-0.47595 -1.50499,-0.53647 -0.65157,-0.24596 -2.05643,-0.69767 -1.07044,-0.34418 -1.91259,-0.64074 -2.70692,-1.47071 0.36654,0.8465 0.67696,1.71958 1.09961,2.5395 0.20392,0.39559 -0.33645,-0.8277 -0.44029,-1.26047 -0.54241,-2.2605 -0.18844,-4.62468 -0.71742,-6.88868 0,0 -2.04685,-3.02661 -2.04685,-3.02661 z" />
    <path
       style="fill:#000000;stroke-width:0.264583"
       id="path953"
       d="m 63.553427,145.28891 c 0.195148,1.58134 0.320915,3.16896 0.533974,4.74877 0.350935,2.48128 0.732861,4.95795 1.113837,7.43476 0.338955,2.40131 0.827098,4.77587 1.3985,7.13151 0.487934,2.03623 1.217094,4.00083 2.048881,5.91858 0.125785,0.26607 0.247803,0.53395 0.377357,0.7982 0.664096,1.35456 1.317262,2.7147 2.003544,4.05817 0.504084,0.98679 1.231003,1.88233 1.913112,2.74878 0.614267,0.73522 1.253778,1.45856 2.013847,2.04784 0.476922,0.36975 0.669829,0.47073 1.183018,0.78902 1.369237,0.85166 2.91049,1.26349 4.469963,1.59735 1.920595,0.35218 3.871275,0.50489 5.820016,0.58501 2.32886,0.0441 4.657211,-0.0668 6.977128,-0.26294 2.346839,-0.22444 4.674727,-0.57217 6.987396,-1.02521 1.89696,-0.39617 3.75622,-0.95743 5.56121,-1.65987 1.55029,-0.6126 2.99778,-1.4455 4.35055,-2.4137 1.30319,-0.98937 2.46544,-2.14531 3.60743,-3.3124 1.23709,-1.34316 2.20661,-2.90248 3.05455,-4.51211 0.86249,-1.725 1.46822,-3.55278 2.01677,-5.39611 0.58183,-1.98978 1.1197,-3.99181 1.67481,-5.98909 0.57512,-1.88973 1.09569,-3.79382 1.58507,-5.70731 0.41651,-1.5585 0.76305,-3.13311 1.05808,-4.71867 0.10276,-0.54101 0.18562,-1.08487 0.25795,-1.63061 0,0 -2.02125,-3.26298 -2.02125,-3.26298 v 0 c -0.0483,0.55859 -0.11545,1.11404 -0.20746,1.66742 -0.25695,1.60717 -0.57339,3.20402 -0.98861,4.77856 -0.47819,1.92155 -0.9824,3.83516 -1.56227,5.72903 -0.54963,1.99476 -1.0949,3.99065 -1.67322,5.97735 -0.54482,1.81951 -1.14206,3.62336 -1.97083,5.33747 -0.8094,1.5907 -1.75766,3.11145 -2.97702,4.42491 -1.12511,1.15462 -2.26311,2.30372 -3.54876,3.28281 -1.32755,0.95149 -2.73965,1.77967 -4.2563,2.39554 -1.7798,0.70073 -3.60305,1.28859 -5.474234,1.69476 -2.290011,0.47512 -4.601303,0.82738 -6.930544,1.04711 -2.313934,0.1782 -4.63746,0.26888 -6.958099,0.18925 -1.938428,-0.10795 -3.880443,-0.26741 -5.784432,-0.66368 -1.533464,-0.35579 -3.034919,-0.82153 -4.365318,-1.69157 -0.502439,-0.33399 -0.670396,-0.42602 -1.133428,-0.8114 -0.722622,-0.60145 -1.338389,-1.31933 -1.934522,-2.04228 -0.499581,-0.64996 -0.987009,-1.30364 -1.414235,-2.00473 -0.715372,-1.17394 -1.136398,-2.27276 0.793613,1.79515 0.128264,0.27035 -0.264737,-0.53672 -0.397106,-0.80508 -0.868283,-1.92159 -1.628806,-3.89568 -2.143842,-5.94398 -0.590118,-2.36077 -1.095406,-4.74157 -1.4488,-7.15038 -0.38368,-2.45302 -0.743079,-4.90979 -1.080868,-7.36955 -0.192518,-1.48922 -0.349974,-2.98142 -0.371168,-4.48455 0,0 -2.15829,-3.31915 -2.15829,-3.31915 z" />
    <path
       style="fill:#000000;stroke-width:0.264583"
       id="path957"
       d="m 59.258853,148.80148 c 0.332406,1.18244 0.549238,2.39773 0.787847,3.60248 0.387535,1.81225 0.616196,3.65085 0.837912,5.48886 0.23636,1.93766 0.433424,3.87961 0.627393,5.82188 0.216945,2.13235 0.441801,4.26392 0.667975,6.39533 0.185092,1.68355 0.456028,3.35438 0.762344,5.01944 0.287337,1.47934 0.77584,2.91 1.32792,4.30901 0.85055,1.8417 1.545457,3.84971 2.812531,5.45769 0.295153,0.37456 0.430059,0.4799 0.773247,0.80678 0.837118,0.74592 1.869488,1.15505 2.948522,1.39793 1.277657,0.24115 2.572126,0.3769 3.866166,0.49317 1.17861,0.0805 2.358197,0.1494 3.537802,0.21442 1.265325,0.0794 2.533557,0.0935 3.799215,0.16277 1.132981,0.0759 2.26707,0.13165 3.401568,0.17863 1.084747,0.021 2.167208,0.0907 3.248708,0.17367 1.352344,0.13684 2.708574,0.2277 4.063249,0.33729 1.525624,0.12689 3.055376,0.18717 4.585099,0.23677 1.711066,0.0476 3.420959,0.12328 5.132179,0.16696 1.84233,0.0619 3.68458,0.0849 5.52768,0.0618 1.77644,0.0203 3.54728,-0.10443 5.31671,-0.24499 1.21449,-0.0949 2.41931,-0.27019 3.6259,-0.43188 1.09204,-0.12239 2.18298,-0.2506 3.26895,-0.41973 1.00676,-0.1918 1.66467,-0.50741 2.33024,-1.28884 0.66406,-0.95526 0.8088,-2.12448 0.97406,-3.24695 0.23565,-1.71283 0.32117,-3.44136 0.39891,-5.1671 0.0807,-1.94591 0.0951,-3.89364 0.15236,-5.84017 0.037,-1.84276 0.14124,-3.68078 0.3301,-5.51402 0.22506,-1.72257 0.54688,-3.43123 0.87853,-5.136 0.31471,-1.50723 0.63443,-3.01291 0.90641,-4.52851 0.25391,-1.43552 0.45225,-2.87988 0.68701,-4.31851 0.0995,-0.57935 0.19942,-1.15863 0.29726,-1.73827 0,0 -1.99915,-3.26089 -1.99915,-3.26089 v 0 c -0.0858,0.59431 -0.17332,1.18835 -0.26908,1.78116 -0.22823,1.44099 -0.42675,2.88664 -0.67573,4.32439 -0.27101,1.52358 -0.56037,3.04339 -0.88181,4.5573 -0.33666,1.7164 -0.64897,3.43836 -0.89576,5.17018 -0.19943,1.84199 -0.31761,3.68927 -0.34566,5.54233 -0.0555,1.94261 -0.0644,3.88654 -0.15281,5.82823 -0.077,1.70079 -0.16468,3.40397 -0.39949,5.09172 -0.16283,1.04331 -0.30281,2.13337 -0.85106,3.05668 -0.55411,0.7316 -1.16842,1.01483 -2.06088,1.19904 -1.08242,0.18266 -2.17304,0.29316 -3.26373,0.41257 -1.18824,0.17735 -2.37386,0.37451 -3.56764,0.51243 -1.75391,0.16621 -3.51177,0.28007 -5.27472,0.26962 -1.83927,0.0136 -3.67809,-0.0164 -5.51653,-0.0741 -1.716145,-0.0622 -3.431296,-0.14732 -5.147499,-0.20604 -1.526575,-0.0557 -3.052742,-0.12863 -4.575009,-0.25936 -1.361696,-0.11574 -2.723295,-0.23311 -4.082073,-0.37989 -1.088816,-0.0928 -2.177855,-0.17512 -3.271285,-0.18469 -1.129641,-0.0384 -2.25838,-0.0952 -3.387066,-0.15511 -1.264698,-0.0534 -2.530758,-0.0778 -3.794054,-0.1626 -1.177636,-0.0783 -2.355296,-0.1524 -3.533134,-0.22683 -1.27608,-0.10214 -2.558037,-0.21516 -3.805513,-0.51606 -1.02131,-0.30425 -1.999271,-0.71472 -2.764062,-1.48524 -0.338611,-0.36023 -0.414896,-0.41761 -0.704535,-0.82152 -0.760617,-1.06068 -1.8556,-3.52684 0.773459,1.86358 0.0935,0.1917 -0.180057,-0.3867 -0.270084,-0.58004 -0.587862,-1.38457 -1.090808,-2.81369 -1.405409,-4.28666 -0.319955,-1.67989 -0.626623,-3.36168 -0.824066,-5.06154 -0.238979,-2.1454 -0.490146,-4.28963 -0.70195,-6.43793 -0.169661,-1.92221 -0.331486,-3.84527 -0.574397,-5.75997 -0.232262,-1.83596 -0.442902,-3.67634 -0.809916,-5.49194 -0.214389,-1.14397 -0.434083,-2.28711 -0.628706,-3.43432 0,0 -2.214448,-3.27443 -2.214448,-3.27443 z" />
    <path
       style="fill:#000000;stroke-width:0.264583"
       id="path959"
       d="m 52.090505,119.64367 c -0.97282,0.0852 -1.9508,0.0559 -2.926059,0.05 -2.238754,-0.0331 -4.475993,0.026 -6.71104,0.15142 -2.480921,0.15467 -4.963448,0.28017 -7.446949,0.38457 -3.276386,0.13472 -6.555814,0.14515 -9.833708,0.21629 -3.834663,0.0617 -7.670006,0.0573 -11.505011,0.0428 -2.575061,0.006 -5.1501635,-0.0406 -7.7178757,-0.24153 -0.7901363,-0.10199 -1.6596965,-0.0843 -2.3825879,-0.46623 -0.1686399,-0.16615 -0.4675264,-0.13555 -0.6395776,-0.28539 -0.088085,-0.0767 -0.1311746,-0.25218 -0.165019,-0.34836 2.7702406,5.71813 1.5877585,3.75827 1.3896594,2.30802 -0.07602,-0.55652 -0.090257,-1.11528 -0.1033796,-1.67583 -0.00293,-1.01631 0.090158,-2.02842 0.2007375,-3.03749 0.1534451,-1.37514 0.4455406,-2.72765 0.7131643,-4.08343 0.3422107,-1.95057 0.7191994,-3.89433 1.0399215,-5.84869 0.3534402,-2.47423 0.790721,-4.93498 1.2062655,-7.39919 C 7.749428,96.50138 8.3025953,93.594223 8.8855858,90.693051 9.570799,87.20756 10.293319,83.729673 11.014693,80.25155 c 0.867798,-4.07053 1.753667,-8.137196 2.659934,-12.199331 0.953352,-4.505886 2.043904,-8.980649 3.14457,-13.452279 0.852974,-3.45912 1.681724,-6.924619 2.581492,-10.371968 0.676443,-2.723949 1.389352,-5.438609 2.16346,-8.136432 0.62025,-2.193005 1.278541,-4.374722 1.955605,-6.550782 0.359932,-1.283745 0.783798,-2.543866 1.613446,-3.602029 0.647662,-0.731418 1.512934,-0.951958 2.444455,-1.071621 1.950527,-0.147426 3.909412,0.06944 5.845263,0.299187 2.589186,0.364003 5.176861,0.751035 7.752177,1.204657 2.604953,0.480353 5.217708,0.914794 7.823854,1.388512 2.728105,0.481203 5.468443,0.88623 8.205025,1.314497 2.594306,0.409329 5.19248,0.79342 7.796694,1.133915 1.982227,0.263731 3.95727,0.575879 5.940605,0.831249 1.971371,0.301569 3.959048,0.469493 5.935535,0.728237 1.001033,0.191415 2.364754,0.306054 2.907562,1.328613 0.06744,0.127042 0.09947,0.269917 0.149212,0.404876 -2.387671,-5.159026 -1.551223,-3.7367 -1.428208,-2.305913 0,0 2.093611,3.26648 2.093611,3.26648 v 0 c -0.01307,-1.818638 -0.600263,-2.481739 -1.79978,-4.650481 -0.08006,-0.12102 -0.144947,-0.253584 -0.240186,-0.363061 -0.751917,-0.864312 -2.064192,-0.900322 -3.102454,-1.074981 -1.979822,-0.223861 -3.95841,-0.455726 -5.932353,-0.727374 -1.977384,-0.256318 -3.94444,-0.589306 -5.928423,-0.794734 -2.582884,-0.288602 -5.162365,-0.616638 -7.731188,-1.011718 -2.745002,-0.448264 -5.483749,-0.934282 -8.227714,-1.388927 -2.603209,-0.471821 -5.215414,-0.890831 -7.817606,-1.368348 -2.590456,-0.455524 -5.189525,-0.863156 -7.790866,-1.251007 -1.984369,-0.259523 -3.986961,-0.50872 -5.991992,-0.426273 -0.226223,0.01861 -0.454248,0.02179 -0.678667,0.05583 -0.7992,0.121222 -1.510921,0.526104 -2.064931,1.104127 -0.867908,1.121114 -1.310592,2.443282 -1.654847,3.807705 -0.660188,2.212656 -1.27129,4.439318 -1.896408,6.661995 -0.77765,2.714739 -1.496746,5.446432 -2.140462,8.196202 -0.861865,3.504303 -1.667648,7.022115 -2.487388,10.536443 -1.055304,4.486815 -2.095738,8.976961 -3.142246,13.465807 -0.913785,4.038476 -1.8158,8.07968 -2.7119454,12.122087 -0.7383396,3.455884 -1.4857317,6.909824 -2.1703683,10.376905 -0.6007635,2.871994 -1.2070151,5.743411 -1.7439545,8.628152 -0.4317428,2.445666 -0.8590129,4.892283 -1.2413207,7.346263 -0.3228332,1.92294 -0.7207033,3.83104 -1.089193,5.74551 -0.2684193,1.34423 -0.5819904,2.6798 -0.7765869,4.03784 -0.1264409,1.02093 -0.2440259,2.04129 -0.2383763,3.07246 0.00485,0.56143 0.013347,1.11782 0.055097,1.67789 0.00126,0.0169 0.058052,0.81258 0.088148,0.87971 0.5699719,1.27124 1.2099754,2.50992 1.8149632,3.76488 0.062047,0.0619 0.116101,0.13299 0.1861413,0.18567 0.2440323,0.18352 0.584096,0.23056 0.8487629,0.37651 0.7860065,0.22178 1.6125174,0.20801 2.4222644,0.23102 2.537026,0.0391 5.0732433,-0.0305 7.6101603,-0.054 3.833516,-0.0357 7.667191,-0.0639 11.500904,-0.057 3.300391,0.0169 6.600734,-0.0376 9.900795,-0.0823 2.494799,-0.0522 4.986703,-0.16013 7.475942,-0.33835 2.244834,-0.11593 4.4919,-0.15911 6.737268,-0.0167 1.009642,0.0477 2.019401,0.0978 3.028175,0.16071 0,0 -1.577845,-3.64618 -1.577845,-3.64618 z" />
    <path
       style="fill:#000000;stroke-width:0.264583"
       id="path961"
       d="m 134.4559,120.00975 c 1.03781,-0.0772 2.07981,-0.074 3.11989,-0.0824 1.71531,-0.009 3.43075,0.0336 5.14535,0.0815 2.22235,0.0684 4.4452,0.11789 6.66804,0.16707 2.30752,0.0232 4.61483,0.0362 6.92186,0.0915 2.66866,0.10441 5.3356,0.25311 8.00291,0.38839 3.29029,0.14207 6.58188,0.24562 9.872,0.39281 2.1381,0.0844 4.27578,0.17986 6.41577,0.18499 1.23715,0.0117 2.47326,-0.0482 3.70884,-0.10146 0.70607,-0.007 1.30596,-0.27033 1.55737,-0.97468 0.0609,-0.17049 0.0855,-0.35182 0.1282,-0.52773 0.0149,-0.27037 0.0421,-0.54034 0.0447,-0.81111 0.005,-0.53108 -0.0579,-1.69607 -0.0867,-2.1946 -0.08,-1.38522 -0.2061,-2.76459 -0.33663,-4.14578 -0.34283,-3.58402 -0.86851,-7.14497 -1.37656,-10.70809 -0.62507,-4.382931 -1.21655,-8.769641 -1.71561,-13.168754 -0.48474,-4.500663 -0.91864,-9.006671 -1.3546,-13.512274 -0.47233,-4.62553 -0.83778,-9.260501 -1.19993,-13.895609 -0.4113,-4.660702 -0.77814,-9.325388 -1.20362,-13.984801 -0.32022,-3.38033 -0.69895,-6.754966 -1.23639,-10.107961 -0.20739,-1.144143 -0.38856,-2.295644 -0.65403,-3.428548 -0.10552,-0.450329 -0.30861,-1.245211 -0.51472,-1.678141 -0.6397,-1.343655 -1.32906,-2.663102 -1.99359,-3.994652 -0.18314,-0.193287 -0.34713,-0.40671 -0.54941,-0.579856 -1.57857,-1.351146 -3.84737,-1.469683 -5.80047,-1.741294 -4.45451,-0.55101 -8.9388,-0.832183 -13.41842,-1.089525 -5.24523,-0.251742 -10.49776,-0.315243 -15.74836,-0.331703 -3.36844,-0.03159 -6.73804,0.0033 -10.10605,-0.06557 -1.48411,-0.0032 -2.97444,-0.195841 -4.45154,0.0025 -1.23435,0.296956 -1.86845,1.343137 -2.42533,2.39256 -0.50012,0.981797 -0.823,2.035392 -1.0821,3.102184 -0.22519,0.955638 -0.29688,1.936782 -0.3732,2.912814 0,0 2.03475,3.256981 2.03475,3.256981 v 0 c 0.0613,-0.963803 0.1336,-1.929739 0.32578,-2.87801 0.22433,-1.061199 0.507,-2.112921 0.97294,-3.097149 0.4756,-0.948981 1.01524,-1.916576 2.1178,-2.197746 1.42828,-0.22093 2.88316,-0.08975 4.32211,-0.167807 3.31396,-0.09929 6.62605,-0.26257 9.94145,-0.314084 5.23777,-0.06121 10.47988,-0.03802 15.7095,0.296183 4.51031,0.317447 9.02224,0.676346 13.4951,1.356092 1.92088,0.360117 4.226,0.634397 5.67379,2.115318 0.18055,0.184679 0.32002,0.405468 0.48003,0.608203 -0.41233,-0.88546 -0.80991,-1.777937 -1.23699,-2.65638 -0.12433,-0.25573 0.23387,0.519139 0.32832,0.78735 0.5034,1.429618 0.68646,2.952734 1.0023,4.427593 0.60268,3.413098 1.03355,6.851441 1.39002,10.298715 0.47326,4.675497 0.85608,9.360175 1.24797,14.043054 0.36972,4.622898 0.69095,9.249865 1.17216,13.863124 0.43494,4.507545 0.88405,9.013709 1.3523,13.517922 0.48595,4.387141 1.07524,8.76022 1.68113,13.132261 0.47872,3.50184 0.93789,7.0059 1.2764,10.52469 0.20282,2.26814 0.41989,4.55213 0.30752,6.83065 -0.16143,0.93266 -0.25803,1.17455 -1.24786,1.25861 -1.21155,0.0924 -2.42345,0.19976 -3.63925,0.21134 -2.11028,0.0359 -4.2204,0.0115 -6.33065,-0.0205 -3.28356,-0.0398 -6.56646,-0.12806 -9.84336,-0.35248 -2.68806,-0.17768 -5.37274,-0.42672 -8.06636,-0.50465 -2.31084,-0.0507 -4.62197,-0.0687 -6.93293,-0.11307 -2.22386,-0.0329 -4.44763,-0.0834 -6.66943,-0.18829 -1.73291,-0.0827 -3.46641,-0.17337 -5.20177,-0.17689 -1.06387,-0.009 -2.12944,-0.007 -3.19118,-0.0824 0,0 1.57068,3.62964 1.57068,3.62964 z" />
    <path
       style="fill:#000000;stroke-width:0.264583"
       id="path963"
       d="m 109.33531,91.09839 c 0.34589,-0.261601 0.57597,-0.628793 0.77138,-1.008578 0,0 -1.95825,-3.408352 -1.95825,-3.408352 v 0 c -0.13486,0.318222 -0.29164,0.660011 -0.58596,0.860618 0,0 1.77283,3.556312 1.77283,3.556312 z" />
    <path
       style="fill:#000000;stroke-width:0.264583"
       id="path965"
       d="m 110.68313,90.162553 c -0.0537,0.05902 0.28766,-0.05864 0.2394,0.0049 -0.0255,0.03364 -0.0881,0.105333 -0.10712,0.06765 -1.7602,-3.483121 -0.77337,-4.536956 -1.69227,-3.537011 0,0 1.80302,3.537789 1.80302,3.537789 v 0 c 1.2389,-0.787332 0.25871,-0.110906 -1.4442,-3.764333 -0.001,-0.0026 -0.34921,0.09796 -0.37667,0.04479 0,0 1.57784,3.646183 1.57784,3.646183 z" />
    <path
       style="fill:#000000;stroke-width:0.264583"
       id="path967"
       d="m 109.35992,86.336604 c 0.0321,0.288492 0.004,0.508736 -0.20191,0.719672 -1.36121,0.900933 -2.30074,-4.451633 1.33856,3.828907 0,0 -1.35115,-3.728664 -1.35115,-3.728664 v 0 c 0.94533,2.32704 0.41676,4.322083 1.84347,3.398726 0.26812,-0.223821 0.51219,-0.492416 0.49984,-0.864179 0,0 -2.12881,-3.354462 -2.12881,-3.354462 z" />
    <path
       style="fill:#000000;stroke-width:0.264583"
       id="path969"
       d="m 109.78532,87.602009 c -0.12381,-0.120164 -0.067,-0.05211 -0.16744,-0.206682 0,0 1.21335,3.761062 1.21335,3.761062 v 0 c 0.1162,0.157303 0.0679,0.07802 0.14876,0.235479 0,0 -1.19467,-3.789859 -1.19467,-3.789859 z" />
    <path
       style="fill:#000000;stroke-width:0.264583"
       id="path971"
       d="m 110.62048,92.251995 c 0.091,-0.179973 0.24417,-0.318239 0.37843,-0.465569 0,0 -1.85419,-3.472302 -1.85419,-3.472302 v 0 c -0.1535,0.160777 -0.32044,0.307356 -0.46911,0.472654 0,0 1.94487,3.465217 1.94487,3.465217 z" />
    <path
       style="fill:#000000;stroke-width:0.264583"
       id="path973"
       d="m 110.27415,90.98051 c 0.0433,-0.0024 0.0867,-0.0049 0.13005,-0.0074 0,0 -1.57142,-3.631326 -1.57142,-3.631326 v 0 c -0.0455,-0.0024 -0.091,-0.0049 -0.13647,-0.0074 0,0 1.57784,3.64618 1.57784,3.64618 z" />
  </g>
</svg>
